<svg width="79" height="32" viewBox="0 0 79 32" fill="none" xmlns="http://www.w3.org/2000/svg">
<path d="M16.7695 0H0V12.234H7.62248L0 19.8531V32H16.7695L24.3919 24.4245V7.66259L16.7695 0ZM16.7695 24.4245H7.62248V7.66259H16.7695V24.4245Z" fill="#079AFF"/>
<path d="M62.2305 0L54.6081 7.66259V12.234L62.2305 12.1905V7.66259H79V0H62.2305ZM54.6081 19.8095H71.3775V24.3809H79V12.234H62.2305L54.6081 19.8095ZM54.6081 32H71.3775L79 24.3809H54.6081V32Z" fill="#079AFF"/>
<path d="M34.8456 0L27.2232 7.66259V12.234L34.8456 12.1905V7.66259H70.0939V0H34.8456ZM27.2232 19.8095H43.9926V24.3809H51.6151V12.234H34.8456L27.2232 19.8095ZM5.85641 32H43.9926L51.6151 24.3809H5.85641V32Z" fill="#079AFF"/>
</svg>
