<svg width="134" height="56" viewBox="0 0 134 56" fill="none" xmlns="http://www.w3.org/2000/svg">
<path d="M28.4444 0.982117H0V21.7326H12.9293L0 34.6555V55.2583H28.4444L41.3737 42.4093V13.9789L28.4444 0.982117ZM28.4444 42.4093H12.9293V13.9789H28.4444V42.4093Z" fill="#079AFF"/>
<path d="M105.556 0.982117L92.6263 13.9789V21.7326L105.556 21.6588V13.9789H134V0.982117H105.556ZM92.6263 34.5817H121.071V42.3354H134V21.7326H105.556L92.6263 34.5817ZM92.6263 55.2583H121.071L134 42.3354H92.6263V55.2583Z" fill="#079AFF"/>
<path d="M59.1053 0.982117L46.176 13.9789V21.7326L59.1053 21.6588V13.9789H118.893V0.982117H59.1053ZM46.176 34.5817H74.6204V42.3354H87.5497V21.7326H59.1053L46.176 34.5817ZM9.93366 55.2583H74.6204L87.5497 42.3354H9.93366V55.2583Z" fill="#079AFF"/>
</svg>
