<?xml version="1.0" encoding="utf-8"?>
<!-- Generator: Adobe Illustrator 24.1.2, SVG Export Plug-In . SVG Version: 6.00 Build 0)  -->
<svg version="1.2" baseProfile="tiny" id="Слой_1"
	 xmlns="http://www.w3.org/2000/svg" xmlns:xlink="http://www.w3.org/1999/xlink" x="0px" y="0px" viewBox="0 0 521.4 290.5"
	 overflow="visible" xml:space="preserve">
<path fill="none" stroke="#079aff" d="M69,45.9c52.1,12.7,132.1,29.9,165.8,70.8c33.7,40.9-2.1,56.2-12.4,18.5
	c-15.7-58,11.6-87.4,36.5-94.3C396.2,2.7,445.7,357.6,521,278.4"/>
<g>
	<path fill="#079aff" d="M49.1,23.2c-1.2,0.6-2.8,1.2-4.9,1.2c-2.6,0-4.9,1-6.5,2.3c0.2,0.6,0.6,1.2,0.6,1.5c0.6-0.4,1.2-0.6,2-0.8
		c1.8-0.2,3.4,0.6,4.2,1.2C46.1,27.5,47.7,25.5,49.1,23.2z"/>
	<path fill="#079aff" d="M51.3,19.4c1-2.5,1.8-4.8,2-6.8c-1,1.5-2.4,3.1-4.8,4.1c-4,1.9-9.3,4.5-12.3,7.7c0.2,0.4,0.4,0.6,0.6,1
		c2-1.5,4.4-2.5,7.3-2.5C48.9,22.8,50.7,20.3,51.3,19.4z"/>
	<path fill="#079aff" d="M40.6,29.2c-0.6,0-1.2,0.4-1.6,0.8c0.2,1,0.4,1.9,0.4,2.9c1.2-0.8,2.6-1.7,4.2-2.9
		C42.8,29.4,41.8,29,40.6,29.2z"/>
	<path fill="#079aff" d="M52.9,3.1h-1c0,0-0.2,4.3-4.9,6.8C42.8,12,36,15.7,34.4,22.6c0.4,0.2,0.6,0.6,0.8,0.8
		c3.2-3.5,8.5-6.2,12.5-7.9c4.8-2.3,5.5-6.8,5.7-8.7C53.5,4.5,52.9,3.1,52.9,3.1z"/>
	<path fill="#079aff" d="M37.8,34.3c0-1.5-0.2-3.5-0.8-5.4c-1.8,0.2-8.5,1.7-10.9,8.3c0.2,0.2,0.4,0.4,0.6,0.8
		C28.1,36,31.7,32.7,37.8,34.3z"/>
	<path fill="#079aff" d="M24.9,12.4c1-3.9-0.6-6.4-1.8-7.7C21.4,3.1,19,1.5,16.2,0l-0.8,0.6c0,0,5.5,3.1,4.8,11.8
		c-0.6,6.2-2.4,14.3,0.2,19.5c-1.2-5.2,1-10.3,2.8-14.5C23.8,15.5,24.6,13.9,24.9,12.4z"/>
	<path fill="#079aff" d="M43.4,38.1c-0.6-0.2-1.4-0.4-2-0.6c0,1.7,4.8,15.1,12.7,8.9C48.1,44.1,44.3,39.5,43.4,38.1z"/>
	<path fill="#079aff" d="M58.4,41.4c0,0-6.9-1-12.5-2.5c1.8,1.9,5.1,5.2,9.9,6.6C57.8,45.3,60.2,43.4,58.4,41.4z"/>
	<path fill="#079aff" d="M20.2,39.1c1.8,1.4,6.1,7.2,13.1,6.2c0.6,0,1.2-0.2,1.8-0.2c-6.7-1.7-10.1-6.8-11.3-9.1
		c-2.2-1-4.8-1.7-6.5-0.2c-1.8,1.5-3,1.9-4.9,2.7v0.8C12.1,39.1,17.8,37.5,20.2,39.1z"/>
	<path fill="#079aff" d="M22.8,33.3c1.2-9.1,6.9-11.6,8.3-12c0.2-2.1,0.2-7.5-4.6-13.4c0.4,1.4,0.4,2.9-0.2,4.8
		c-0.4,1.5-1.2,3.5-2,5.2c-2,4.6-4.2,9.9-2.2,15.1C22.4,33.1,22.6,33.3,22.8,33.3z"/>
	<path fill="#079aff" d="M36.2,27.3c-1-1.7-2.4-3.5-4.6-4.6c-0.8,0.2-6.5,2.5-7.5,11.8c0.4,0.4,0.6,0.8,1,1
		C27.7,29.6,34.1,27.9,36.2,27.3z"/>
	<path fill="#079aff" d="M0.2,42.2l11.9-3.1v-0.6L0,40.8L0.2,42.2z"/>
	<path fill="#079aff" d="M37.6,35.6c-5.7-1.7-9.1,1.7-10.1,3.3c2.6,2.7,6.9,5.8,13.7,5.4c0.4,0,0.8,0,1.2,0c-1-1.5-2.4-4.5-2.6-7.5
		C39,36.2,38.4,36,37.6,35.6z"/>
</g>
</svg>
