<?xml version="1.0" encoding="utf-8"?>
<!-- Generator: Adobe Illustrator 24.1.2, SVG Export Plug-In . SVG Version: 6.00 Build 0)  -->
<svg version="1.2" baseProfile="tiny" id="Слой_1"
	 xmlns="http://www.w3.org/2000/svg" xmlns:xlink="http://www.w3.org/1999/xlink" x="0px" y="0px" viewBox="0 0 548.1 347"
	 overflow="visible" xml:space="preserve">
<path fill="none" stroke="#079aff" d="M0.1,0.5c59.5,9.5,187.6,47,223.8,121c45.3,92.5-74,177.3-94.4,147.6
	c-15.1-22,35.6-58.2,103.5,0c49.4,42.4,135.2,91.3,199.2,73.8c39-10.7,53.7-30.6,56.9-36.9"/>
<path fill="#079aff" d="M499,271.7c1.2,0.6,2.8,1.2,5,1.2c2.6,0,5,1,6.5,2.3c-0.2,0.6-0.6,1.2-0.6,1.5c-0.6-0.4-1.2-0.6-2-0.8
	c-1.8-0.2-3.4,0.6-4.2,1.2C501.9,276,500.4,274,499,271.7z"/>
<path fill="#079aff" d="M496.8,267.8c-1-2.5-1.8-4.8-2-6.8c1,1.5,2.4,3.1,4.8,4.1c4,1.9,9.3,4.5,12.3,7.7c-0.2,0.4-0.4,0.6-0.6,1
	c-2-1.5-4.4-2.5-7.3-2.5C499.2,271.3,497.4,268.8,496.8,267.8z"/>
<path fill="#079aff" d="M507.5,277.7c0.6,0,1.2,0.4,1.6,0.8c-0.2,1-0.4,1.9-0.4,2.9c-1.2-0.8-2.6-1.7-4.2-2.9
	C505.3,277.9,506.3,277.5,507.5,277.7z"/>
<path fill="#079aff" d="M495.2,251.6h1c0,0,0.2,4.3,4.9,6.8c4.2,2.1,10.9,5.8,12.5,12.8c-0.4,0.2-0.6,0.6-0.8,0.8
	c-3.2-3.5-8.5-6.2-12.5-7.9c-4.8-2.3-5.5-6.8-5.7-8.7C494.6,252.9,495.2,251.6,495.2,251.6z"/>
<path fill="#079aff" d="M510.3,282.8c0-1.5,0.2-3.5,0.8-5.4c1.8,0.2,8.5,1.7,10.9,8.3c-0.2,0.2-0.4,0.4-0.6,0.8
	C520,284.5,516.4,281.2,510.3,282.8z"/>
<path fill="#079aff" d="M523.1,260.9c-1-3.9,0.6-6.4,1.8-7.7c1.8-1.5,4.2-3.1,6.9-4.6l0.8,0.6c0,0-5.5,3.1-4.8,11.8
	c0.6,6.2,2.4,14.3-0.2,19.5c1.2-5.2-1-10.3-2.8-14.5C524.3,264,523.5,262.4,523.1,260.9z"/>
<path fill="#079aff" d="M504.7,286.6c0.6-0.2,1.4-0.4,2-0.6c0,1.7-4.8,15.1-12.7,8.9C500,292.6,503.7,288,504.7,286.6z"/>
<path fill="#079aff" d="M489.7,289.9c0,0,6.9-1,12.5-2.5c-1.8,1.9-5.1,5.2-9.9,6.6C490.3,293.8,487.9,291.8,489.7,289.9z"/>
<path fill="#079aff" d="M527.9,287.6c-1.8,1.4-6.1,7.2-13.1,6.2c-0.6,0-1.2-0.2-1.8-0.2c6.7-1.7,10.1-6.8,11.3-9.1
	c2.2-1,4.8-1.7,6.5-0.2c1.8,1.5,3,1.9,4.9,2.7v0.8C536,287.6,530.3,286,527.9,287.6z"/>
<path fill="#079aff" d="M525.3,281.8c-1.2-9.1-6.9-11.6-8.3-12c-0.2-2.1-0.2-7.5,4.6-13.4c-0.4,1.4-0.4,2.9,0.2,4.8
	c0.4,1.5,1.2,3.5,2,5.2c2,4.6,4.2,9.9,2.2,15.1C525.7,281.6,525.5,281.8,525.3,281.8z"/>
<path fill="#079aff" d="M511.8,275.8c1-1.7,2.4-3.5,4.6-4.6c0.8,0.2,6.5,2.5,7.5,11.8c-0.4,0.4-0.6,0.8-1,1
	C520.4,278.1,514,276.4,511.8,275.8z"/>
<path fill="#079aff" d="M547.9,290.7l-11.9-3.1V287l12.1,2.3L547.9,290.7z"/>
<path fill="#079aff" d="M510.5,284.1c5.7-1.7,9.1,1.7,10.1,3.3c-2.6,2.7-6.9,5.8-13.7,5.4c-0.4,0-0.8,0-1.2,0c1-1.5,2.4-4.5,2.6-7.5
	C509.1,284.7,509.7,284.5,510.5,284.1z"/>
</svg>
