<svg width="57" height="72" viewBox="0 0 57 72" fill="none" xmlns="http://www.w3.org/2000/svg">
<g clip-path="url(#clip0_417_41)">
<path d="M38.2344 0H0V27.5265H17.3793L0 44.6694V72H38.2344L55.6136 54.9551V17.2408L38.2344 0ZM38.2344 54.9551H17.3793V17.2408H38.2344V54.9551Z" fill="#079AFF"/>
<path d="M141.886 0L124.506 17.2408V27.5265L141.886 27.4286V17.2408H180.12V0H141.886ZM124.506 44.5714H162.741V54.8571H180.12V27.5265H141.886L124.506 44.5714ZM124.506 72H162.741L180.12 54.8571H124.506V72Z" fill="#079AFF"/>
<path d="M79.4481 0L62.0688 17.2408V27.5265L79.4481 27.4286V17.2408H159.814V0H79.4481ZM62.0688 44.5714H100.303V54.8571H117.682V27.5265H79.4481L62.0688 44.5714ZM13.3526 72H100.303L117.682 54.8571H13.3526V72Z" fill="#079AFF"/>
</g>
<defs>
<clipPath id="clip0_417_41">
<rect width="57" height="72" fill="white"/>
</clipPath>
</defs>
</svg>
