<svg width="263" height="55" viewBox="0 0 263 55" fill="none" xmlns="http://www.w3.org/2000/svg">
<path d="M28.4444 0H0V20.7505H12.9293L0 33.6734V54.2762H28.4444L41.3737 41.4272V12.9968L28.4444 0ZM28.4444 41.4272H12.9293V12.9968H28.4444V41.4272Z" fill="#079AFF"/>
<path d="M105.556 0L92.6263 12.9968V20.7505L105.556 20.6767V12.9968H134V0H105.556ZM92.6263 33.5996H121.071V41.3533H134V20.7505H105.556L92.6263 33.5996ZM92.6263 54.2762H121.071L134 41.3533H92.6263V54.2762Z" fill="#079AFF"/>
<path d="M59.1053 0L46.176 12.9968V20.7505L59.1053 20.6767V12.9968H118.893V0H59.1053ZM46.176 33.5996H74.6204V41.3533H87.5497V20.7505H59.1053L46.176 33.5996ZM9.93366 54.2762H74.6204L87.5497 41.3533H9.93366V54.2762Z" fill="#079AFF"/>
<path d="M154.178 6.27273V15H152.354V7.77273H148.825V15H147.001V6.27273H154.178ZM157.134 15V6.27273H160.577C161.239 6.27273 161.803 6.39915 162.269 6.65199C162.735 6.90199 163.09 7.25 163.335 7.69602C163.582 8.1392 163.705 8.65057 163.705 9.23011C163.705 9.80966 163.58 10.321 163.33 10.7642C163.08 11.2074 162.718 11.5526 162.244 11.7997C161.772 12.0469 161.201 12.1705 160.531 12.1705H158.336V10.6918H160.232C160.587 10.6918 160.88 10.6307 161.11 10.5085C161.343 10.3835 161.516 10.2116 161.63 9.9929C161.747 9.77131 161.805 9.51705 161.805 9.23011C161.805 8.94034 161.747 8.6875 161.63 8.47159C161.516 8.25284 161.343 8.08381 161.11 7.96449C160.877 7.84233 160.582 7.78125 160.224 7.78125H158.979V15H157.134ZM166.104 15V6.27273H171.985V7.79403H167.949V9.87358H171.682V11.3949H167.949V13.4787H172.002V15H166.104ZM174.178 17.1051V13.5298H174.771C174.973 13.3849 175.157 13.1804 175.325 12.9162C175.492 12.6491 175.636 12.2812 175.755 11.8125C175.875 11.3409 175.96 10.7244 176.011 9.96307L176.258 6.27273H182.032V13.5298H182.987V17.0966H181.214V15H175.951V17.1051H174.178ZM176.901 13.5298H180.259V7.79403H177.92L177.784 9.96307C177.747 10.5398 177.686 11.0511 177.6 11.4972C177.518 11.9432 177.417 12.3338 177.298 12.669C177.181 13.0014 177.049 13.2884 176.901 13.5298ZM192.728 6.27273V15H190.904V7.77273H187.375V15H185.551V6.27273H192.728ZM195.684 15V6.27273H199.127C199.789 6.27273 200.353 6.39915 200.819 6.65199C201.285 6.90199 201.64 7.25 201.885 7.69602C202.132 8.1392 202.255 8.65057 202.255 9.23011C202.255 9.80966 202.13 10.321 201.88 10.7642C201.63 11.2074 201.268 11.5526 200.794 11.7997C200.322 12.0469 199.751 12.1705 199.081 12.1705H196.886V10.6918H198.782C199.137 10.6918 199.43 10.6307 199.66 10.5085C199.893 10.3835 200.066 10.2116 200.18 9.9929C200.297 9.77131 200.355 9.51705 200.355 9.23011C200.355 8.94034 200.297 8.6875 200.18 8.47159C200.066 8.25284 199.893 8.08381 199.66 7.96449C199.427 7.84233 199.132 7.78125 198.774 7.78125H197.529V15H195.684ZM204.654 6.27273H206.495V11.7614H206.567L210.338 6.27273H211.954V15H210.108V9.5071H210.044L206.252 15H204.654V6.27273ZM221.377 15H219.536V7.78125H218.292C217.937 7.78125 217.641 7.83381 217.405 7.93892C217.172 8.04119 216.998 8.19176 216.881 8.39062C216.765 8.58949 216.706 8.83381 216.706 9.12358C216.706 9.41051 216.765 9.65057 216.881 9.84375C216.998 10.0369 217.172 10.1818 217.405 10.2784C217.638 10.375 217.931 10.4233 218.283 10.4233H220.286V11.9062H217.985C217.317 11.9062 216.746 11.7955 216.272 11.5739C215.797 11.3523 215.435 11.0341 215.185 10.6193C214.935 10.2017 214.81 9.70312 214.81 9.12358C214.81 8.54687 214.932 8.04545 215.177 7.61932C215.424 7.19034 215.78 6.85937 216.246 6.62642C216.715 6.39062 217.279 6.27273 217.938 6.27273H221.377V15ZM216.668 11.0284H218.658L216.536 15H214.499L216.668 11.0284ZM223.761 7.79403V6.27273H230.928V7.79403H228.256V15H226.432V7.79403H223.761ZM233.309 6.27273H235.149V11.7614H235.222L238.993 6.27273H240.608V15H238.763V9.5071H238.699L234.907 15H233.309V6.27273ZM243.333 15V6.27273H249.213V7.79403H245.178V9.87358H248.911V11.3949H245.178V13.4787H249.23V15H243.333ZM154.459 25.3281H152.592C152.558 25.0866 152.489 24.8722 152.384 24.6847C152.278 24.4943 152.143 24.3324 151.979 24.1989C151.814 24.0653 151.624 23.9631 151.408 23.892C151.195 23.821 150.963 23.7855 150.713 23.7855C150.261 23.7855 149.868 23.8977 149.533 24.1222C149.197 24.3437 148.938 24.6676 148.753 25.0938C148.568 25.517 148.476 26.0312 148.476 26.6364C148.476 27.2585 148.568 27.7812 148.753 28.2045C148.94 28.6278 149.202 28.9474 149.537 29.1634C149.872 29.3793 150.26 29.4872 150.7 29.4872C150.947 29.4872 151.176 29.4545 151.386 29.3892C151.599 29.3239 151.788 29.2287 151.953 29.1037C152.118 28.9759 152.254 28.821 152.362 28.6392C152.473 28.4574 152.55 28.25 152.592 28.017L154.459 28.0256C154.411 28.4261 154.29 28.8125 154.097 29.1847C153.906 29.554 153.649 29.8849 153.325 30.1776C153.004 30.4673 152.621 30.6974 152.175 30.8679C151.732 31.0355 151.23 31.1193 150.67 31.1193C149.892 31.1193 149.196 30.9432 148.582 30.5909C147.972 30.2386 147.489 29.7287 147.134 29.0611C146.781 28.3935 146.605 27.5852 146.605 26.6364C146.605 25.6847 146.784 24.875 147.142 24.2074C147.5 23.5398 147.986 23.0312 148.599 22.6818C149.213 22.3295 149.903 22.1534 150.67 22.1534C151.176 22.1534 151.645 22.2244 152.077 22.3665C152.511 22.5085 152.896 22.7159 153.232 22.9886C153.567 23.2585 153.839 23.5895 154.05 23.9815C154.263 24.3736 154.399 24.8224 154.459 25.3281ZM156.65 23.794V22.2727H163.817V23.794H161.145V31H159.321V23.794H156.65ZM166.198 31V22.2727H169.641C170.303 22.2727 170.867 22.3991 171.333 22.652C171.798 22.902 172.154 23.25 172.398 23.696C172.645 24.1392 172.769 24.6506 172.769 25.2301C172.769 25.8097 172.644 26.321 172.394 26.7642C172.144 27.2074 171.781 27.5526 171.307 27.7997C170.835 28.0469 170.264 28.1705 169.594 28.1705H167.399V26.6918H169.296C169.651 26.6918 169.943 26.6307 170.173 26.5085C170.406 26.3835 170.58 26.2116 170.693 25.9929C170.81 25.7713 170.868 25.517 170.868 25.2301C170.868 24.9403 170.81 24.6875 170.693 24.4716C170.58 24.2528 170.406 24.0838 170.173 23.9645C169.94 23.8423 169.645 23.7812 169.287 23.7812H168.043V31H166.198ZM183.187 26.6364C183.187 27.5881 183.007 28.3977 182.646 29.0653C182.288 29.733 181.799 30.2429 181.18 30.5952C180.563 30.9446 179.87 31.1193 179.1 31.1193C178.325 31.1193 177.629 30.9432 177.012 30.5909C176.396 30.2386 175.909 29.7287 175.551 29.0611C175.193 28.3935 175.014 27.5852 175.014 26.6364C175.014 25.6847 175.193 24.875 175.551 24.2074C175.909 23.5398 176.396 23.0312 177.012 22.6818C177.629 22.3295 178.325 22.1534 179.1 22.1534C179.87 22.1534 180.563 22.3295 181.18 22.6818C181.799 23.0312 182.288 23.5398 182.646 24.2074C183.007 24.875 183.187 25.6847 183.187 26.6364ZM181.316 26.6364C181.316 26.0199 181.224 25.5 181.039 25.0767C180.857 24.6534 180.6 24.3324 180.268 24.1136C179.936 23.8949 179.546 23.7855 179.1 23.7855C178.654 23.7855 178.265 23.8949 177.933 24.1136C177.6 24.3324 177.342 24.6534 177.157 25.0767C176.975 25.5 176.884 26.0199 176.884 26.6364C176.884 27.2528 176.975 27.7727 177.157 28.196C177.342 28.6193 177.6 28.9403 177.933 29.1591C178.265 29.3778 178.654 29.4872 179.1 29.4872C179.546 29.4872 179.936 29.3778 180.268 29.1591C180.6 28.9403 180.857 28.6193 181.039 28.196C181.224 27.7727 181.316 27.2528 181.316 26.6364ZM185.754 22.2727H187.595V27.7614H187.667L191.438 22.2727H193.054V31H191.208V25.5071H191.144L187.352 31H185.754V22.2727ZM195.446 23.794V22.2727H202.613V23.794H199.941V31H198.118V23.794H195.446ZM204.994 31V22.2727H210.874V23.794H206.839V25.8736H210.572V27.3949H206.839V29.4787H210.891V31H204.994ZM213.068 31V29.517L213.315 29.4957C213.634 29.4702 213.891 29.3494 214.087 29.1335C214.283 28.9148 214.429 28.5668 214.526 28.0895C214.625 27.6094 214.689 26.9645 214.717 26.1548L214.862 22.2727H220.786V31H218.992V23.7514H216.575L216.439 26.7898C216.394 27.767 216.277 28.5653 216.09 29.1847C215.905 29.804 215.61 30.2614 215.203 30.5568C214.8 30.8523 214.247 31 213.546 31H213.068ZM224.721 25.4986H226.801C227.494 25.4986 228.091 25.6108 228.591 25.8352C229.094 26.0568 229.481 26.3707 229.754 26.777C230.027 27.1832 230.162 27.6619 230.159 28.2131C230.162 28.7614 230.027 29.2457 229.754 29.6662C229.481 30.0838 229.094 30.4105 228.591 30.6463C228.091 30.8821 227.494 31 226.801 31H223.541V22.2727H225.382V29.517H226.801C227.133 29.517 227.413 29.4574 227.64 29.3381C227.868 29.2159 228.04 29.0554 228.156 28.8565C228.275 28.6548 228.334 28.4347 228.331 28.196C228.334 27.8494 228.203 27.5568 227.939 27.3182C227.677 27.0767 227.298 26.956 226.801 26.956H224.721V25.4986ZM232.828 31V22.2727H234.673V25.8736H238.419V22.2727H240.26V31H238.419V27.3949H234.673V31H232.828ZM244.196 25.4986H246.275C246.968 25.4986 247.565 25.6108 248.065 25.8352C248.568 26.0568 248.956 26.3707 249.228 26.777C249.501 27.1832 249.636 27.6619 249.633 28.2131C249.636 28.7614 249.501 29.2457 249.228 29.6662C248.956 30.0838 248.568 30.4105 248.065 30.6463C247.565 30.8821 246.968 31 246.275 31H243.015V22.2727H244.856V29.517H246.275C246.608 29.517 246.887 29.4574 247.115 29.3381C247.342 29.2159 247.514 29.0554 247.63 28.8565C247.75 28.6548 247.808 28.4347 247.805 28.196C247.808 27.8494 247.677 27.5568 247.413 27.3182C247.152 27.0767 246.772 26.956 246.275 26.956H244.196V25.4986ZM252.186 22.2727V31H250.345V22.2727H252.186ZM256.634 22.2727L258.394 25.2472H258.462L260.231 22.2727H262.314L259.651 26.6364L262.374 31H260.252L258.462 28.0213H258.394L256.604 31H254.49L257.222 26.6364L254.542 22.2727H256.634ZM154.178 38.2727V47H152.354V39.7727H148.825V47H147.001V38.2727H154.178ZM165.154 42.6364C165.154 43.5881 164.974 44.3977 164.613 45.0653C164.255 45.733 163.766 46.2429 163.147 46.5952C162.531 46.9446 161.837 47.1193 161.068 47.1193C160.292 47.1193 159.596 46.9432 158.979 46.5909C158.363 46.2386 157.876 45.7287 157.518 45.0611C157.16 44.3935 156.981 43.5852 156.981 42.6364C156.981 41.6847 157.16 40.875 157.518 40.2074C157.876 39.5398 158.363 39.0312 158.979 38.6818C159.596 38.3295 160.292 38.1534 161.068 38.1534C161.837 38.1534 162.531 38.3295 163.147 38.6818C163.766 39.0312 164.255 39.5398 164.613 40.2074C164.974 40.875 165.154 41.6847 165.154 42.6364ZM163.283 42.6364C163.283 42.0199 163.191 41.5 163.006 41.0767C162.825 40.6534 162.568 40.3324 162.235 40.1136C161.903 39.8949 161.514 39.7855 161.068 39.7855C160.622 39.7855 160.232 39.8949 159.9 40.1136C159.568 40.3324 159.309 40.6534 159.124 41.0767C158.943 41.5 158.852 42.0199 158.852 42.6364C158.852 43.2528 158.943 43.7727 159.124 44.196C159.309 44.6193 159.568 44.9403 159.9 45.1591C160.232 45.3778 160.622 45.4872 161.068 45.4872C161.514 45.4872 161.903 45.3778 162.235 45.1591C162.568 44.9403 162.825 44.6193 163.006 44.196C163.191 43.7727 163.283 43.2528 163.283 42.6364ZM175.421 41.3281H173.555C173.521 41.0866 173.451 40.8722 173.346 40.6847C173.241 40.4943 173.106 40.3324 172.941 40.1989C172.776 40.0653 172.586 39.9631 172.37 39.892C172.157 39.821 171.926 39.7855 171.676 39.7855C171.224 39.7855 170.83 39.8977 170.495 40.1222C170.16 40.3437 169.9 40.6676 169.715 41.0938C169.531 41.517 169.438 42.0312 169.438 42.6364C169.438 43.2585 169.531 43.7812 169.715 44.2045C169.903 44.6278 170.164 44.9474 170.499 45.1634C170.835 45.3793 171.222 45.4872 171.663 45.4872C171.91 45.4872 172.139 45.4545 172.349 45.3892C172.562 45.3239 172.751 45.2287 172.916 45.1037C173.08 44.9759 173.217 44.821 173.325 44.6392C173.436 44.4574 173.512 44.25 173.555 44.017L175.421 44.0256C175.373 44.4261 175.252 44.8125 175.059 45.1847C174.869 45.554 174.612 45.8849 174.288 46.1776C173.967 46.4673 173.583 46.6974 173.137 46.8679C172.694 47.0355 172.193 47.1193 171.633 47.1193C170.855 47.1193 170.159 46.9432 169.545 46.5909C168.934 46.2386 168.451 45.7287 168.096 45.0611C167.744 44.3935 167.568 43.5852 167.568 42.6364C167.568 41.6847 167.747 40.875 168.105 40.2074C168.462 39.5398 168.948 39.0312 169.562 38.6818C170.176 38.3295 170.866 38.1534 171.633 38.1534C172.139 38.1534 172.607 38.2244 173.039 38.3665C173.474 38.5085 173.859 38.7159 174.194 38.9886C174.529 39.2585 174.802 39.5895 175.012 39.9815C175.225 40.3736 175.362 40.8224 175.421 41.3281ZM177.612 39.794V38.2727H184.78V39.794H182.108V47H180.284V39.794H177.612ZM187.598 47H185.621L188.633 38.2727H191.011L194.02 47H192.043L189.856 40.267H189.788L187.598 47ZM187.474 43.5696H192.145V45.0099H187.474V43.5696ZM196.27 47V38.2727H199.765C200.407 38.2727 200.942 38.3679 201.371 38.5582C201.8 38.7486 202.123 39.0128 202.338 39.3509C202.554 39.6861 202.662 40.0724 202.662 40.5099C202.662 40.8509 202.594 41.1506 202.458 41.4091C202.321 41.6648 202.134 41.875 201.895 42.0398C201.659 42.2017 201.39 42.3168 201.086 42.3849V42.4702C201.418 42.4844 201.729 42.5781 202.019 42.7514C202.311 42.9247 202.549 43.1676 202.73 43.4801C202.912 43.7898 203.003 44.1591 203.003 44.5881C203.003 45.0511 202.888 45.4645 202.658 45.8281C202.431 46.1889 202.094 46.4744 201.648 46.6847C201.202 46.8949 200.652 47 199.999 47H196.27ZM198.115 45.4915H199.62C200.134 45.4915 200.509 45.3935 200.745 45.1974C200.98 44.9986 201.098 44.7344 201.098 44.4048C201.098 44.1634 201.04 43.9503 200.924 43.7656C200.807 43.581 200.641 43.4361 200.425 43.331C200.212 43.2259 199.958 43.1733 199.662 43.1733H198.115V45.4915ZM198.115 41.9247H199.483C199.736 41.9247 199.961 41.8807 200.157 41.7926C200.355 41.7017 200.512 41.5739 200.625 41.4091C200.742 41.2443 200.8 41.0469 200.8 40.8168C200.8 40.5014 200.688 40.2472 200.463 40.054C200.242 39.8608 199.926 39.7642 199.517 39.7642H198.115V41.9247ZM213.424 42.6364C213.424 43.5881 213.243 44.3977 212.883 45.0653C212.525 45.733 212.036 46.2429 211.417 46.5952C210.8 46.9446 210.107 47.1193 209.337 47.1193C208.562 47.1193 207.865 46.9432 207.249 46.5909C206.633 46.2386 206.145 45.7287 205.787 45.0611C205.429 44.3935 205.25 43.5852 205.25 42.6364C205.25 41.6847 205.429 40.875 205.787 40.2074C206.145 39.5398 206.633 39.0312 207.249 38.6818C207.865 38.3295 208.562 38.1534 209.337 38.1534C210.107 38.1534 210.8 38.3295 211.417 38.6818C212.036 39.0312 212.525 39.5398 212.883 40.2074C213.243 40.875 213.424 41.6847 213.424 42.6364ZM211.553 42.6364C211.553 42.0199 211.461 41.5 211.276 41.0767C211.094 40.6534 210.837 40.3324 210.505 40.1136C210.172 39.8949 209.783 39.7855 209.337 39.7855C208.891 39.7855 208.502 39.8949 208.169 40.1136C207.837 40.3324 207.579 40.6534 207.394 41.0767C207.212 41.5 207.121 42.0199 207.121 42.6364C207.121 43.2528 207.212 43.7727 207.394 44.196C207.579 44.6193 207.837 44.9403 208.169 45.1591C208.502 45.3778 208.891 45.4872 209.337 45.4872C209.783 45.4872 210.172 45.3778 210.505 45.1591C210.837 44.9403 211.094 44.6193 211.276 44.196C211.461 43.7727 211.553 43.2528 211.553 42.6364ZM221.27 47L218.466 43.2798H217.836V47H215.991V38.2727H217.836V41.7585H218.206L221.104 38.2727H223.401L219.996 42.321L223.559 47H221.27Z" fill="#079AFF"/>
</svg>
